<svg width="124" height="87" viewBox="0 0 124 87" fill="none" xmlns="http://www.w3.org/2000/svg">
<path d="M113.617 87H10.3827C4.6611 87 0 82.2953 0 76.5202V10.4798C0 4.70472 4.6611 0 10.3827 0H113.617C119.339 0 124 4.70472 124 10.4798V76.5202C124 82.2953 119.364 87 113.617 87ZM10.3827 4.97854C7.37391 4.97854 4.93238 7.44292 4.93238 10.4798V76.5202C4.93238 79.5571 7.37391 82.0215 10.3827 82.0215H113.617C116.626 82.0215 119.068 79.5571 119.068 76.5202V10.4798C119.068 7.44292 116.626 4.97854 113.617 4.97854H10.3827Z" fill="#58A33E"/>
<path d="M14.3779 62.655H2.46619V57.6764H14.3779C15.0931 57.6764 15.685 57.079 15.685 56.3571V30.0455C15.685 29.3236 15.0931 28.7262 14.3779 28.7262H9.66746V23.7477H14.3779C17.8059 23.7477 20.6173 26.5606 20.6173 30.0455V56.3571C20.6173 59.8421 17.8059 62.655 14.3779 62.655Z" fill="#58A33E"/>
<path d="M114.357 62.655H109.647C106.219 62.655 103.407 59.8421 103.407 56.3571V30.0455C103.407 26.5854 106.194 23.7477 109.647 23.7477H121.558V28.7262H109.647C108.932 28.7262 108.34 29.3236 108.34 30.0455V56.3571C108.34 57.079 108.932 57.6764 109.647 57.6764H114.357V62.655Z" fill="#58A33E"/>
<path d="M64.4662 2.48926H59.5338V84.5107H64.4662V2.48926Z" fill="#58A33E"/>
<path d="M61.5314 64.3974C50.113 64.3974 40.8154 55.0128 40.8154 43.4875C40.8154 31.9622 50.113 22.5776 61.5314 22.5776C72.9499 22.5776 82.2474 31.9622 82.2474 43.4875C82.2474 55.0128 72.9499 64.3974 61.5314 64.3974ZM61.5314 27.5811C52.8258 27.5811 45.7478 34.7253 45.7478 43.5124C45.7478 52.2995 52.8258 59.4437 61.5314 59.4437C70.2371 59.4437 77.3151 52.2995 77.3151 43.5124C77.3151 34.7253 70.2371 27.5811 61.5314 27.5811Z" fill="#58A33E"/>
</svg>
