<svg width="12" height="12" viewBox="0 0 12 12" fill="none" xmlns="http://www.w3.org/2000/svg">
<path fill-rule="evenodd" clip-rule="evenodd" d="M3.52179 0.0736373C2.54506 0.117707 1.69849 0.356504 1.0149 1.03721C0.328917 1.72149 0.0930849 2.57141 0.048905 3.53798C0.0214418 4.14127 -0.139148 8.69895 0.32653 9.89421C0.640564 10.7006 1.25906 11.3206 2.07281 11.6356C2.45251 11.7833 2.88596 11.8833 3.52179 11.9125C8.83828 12.1531 10.8091 12.0221 11.6401 9.89421C11.7876 9.51544 11.8891 9.08237 11.9171 8.44812C12.1601 3.11801 11.8777 1.96268 10.9512 1.03721C10.2162 0.304095 9.35172 -0.194952 3.52179 0.0736373ZM3.57074 10.8405C2.98864 10.8143 2.67282 10.7173 2.46207 10.6357C1.93191 10.4297 1.5337 10.0331 1.32892 9.50603C0.974291 8.59782 1.09191 4.2843 1.12355 3.58632C1.1546 2.90263 1.2931 2.27779 1.7755 1.79541C2.37252 1.19986 3.14387 0.907991 8.39588 1.14502C9.08126 1.17599 9.70755 1.31421 10.1911 1.79541C10.7882 2.39095 11.0843 3.16823 10.8431 8.40007C10.8168 8.98073 10.7195 9.2958 10.6377 9.50603C10.0974 10.8907 8.85439 11.0829 3.57074 10.8405ZM8.4538 2.81376C8.4538 3.20802 8.77441 3.52861 9.17023 3.52861C9.56606 3.52861 9.88726 3.20802 9.88726 2.81376C9.88726 2.41952 9.56606 2.09922 9.17023 2.09922C8.77441 2.09922 8.4538 2.41952 8.4538 2.81376ZM2.9176 5.99276C2.9176 7.68172 4.29016 9.05105 5.98332 9.05105C7.67648 9.05105 9.04904 7.68172 9.04904 5.99276C9.04904 4.3038 7.67648 2.93535 5.98332 2.93535C4.29016 2.93535 2.9176 4.3038 2.9176 5.99276ZM3.99344 5.99276C3.99344 4.89696 4.8842 4.0079 5.98332 4.0079C7.08244 4.0079 7.9732 4.89696 7.9732 5.99276C7.9732 7.08915 7.08244 7.97849 5.98332 7.97849C4.8842 7.97849 3.99344 7.08915 3.99344 5.99276Z" fill="white"/>
</svg>
