<svg width="136" height="135" viewBox="0 0 136 135" fill="none" xmlns="http://www.w3.org/2000/svg">
<path d="M54.4 85H9.89093V90H54.4V85Z" fill="#58A33E"/>
<path d="M133.527 85H93.9636V90H133.527V85Z" fill="#58A33E"/>
<path d="M25.3949 105H0V110H25.3949V105Z" fill="#58A33E"/>
<path d="M25.3949 122.5H0V127.5H25.3949V122.5Z" fill="#58A33E"/>
<path d="M54.4 130H29.6727C25.5927 130 22.2545 126.625 22.2545 122.5V110C22.2545 105.875 25.5927 102.5 29.6727 102.5H54.4V107.5H29.6727C28.3127 107.5 27.2 108.625 27.2 110V122.5C27.2 123.875 28.3127 125 29.6727 125H54.4V130Z" fill="#58A33E"/>
<path d="M93.9637 77.5H54.4V82.5H93.9637V77.5Z" fill="#58A33E"/>
<path d="M89.0182 135H59.3455C55.2655 135 51.9273 131.625 51.9273 127.5V80.525L45.0284 64.275C44.7069 63.5 44.5585 62.35 44.5091 61.9V61.65C44.5091 57.975 47.4516 55 51.0865 55H97.2771C100.912 55 103.855 57.975 103.855 61.65V61.9C103.805 62.35 103.657 63.475 103.335 64.275L96.4364 80.525V127.5C96.4364 131.625 93.0982 135 89.0182 135ZM49.4545 61.525C49.504 61.85 49.5535 62.225 49.6029 62.35L56.8727 79.475V127.5C56.8727 128.875 57.9855 130 59.3455 130H89.0182C90.3782 130 91.4909 128.875 91.4909 127.5V79.475L98.7855 62.275C98.8102 62.2 98.8844 61.825 98.9091 61.525C98.8596 60.675 98.1426 60 97.2771 60H51.0865C50.2211 60 49.504 60.675 49.4545 61.525Z" fill="#58A33E"/>
<path d="M121.164 40H116.218V45H121.164V40Z" fill="#58A33E"/>
<path d="M128.582 32.5H123.636V37.5H128.582V32.5Z" fill="#58A33E"/>
<path d="M136 25H131.055V30H136V25Z" fill="#58A33E"/>
<path d="M103.855 35H98.9091V40H103.855V35Z" fill="#58A33E"/>
<path d="M108.8 25H103.855V30H108.8V25Z" fill="#58A33E"/>
<path d="M113.745 15H108.8V20H113.745V15Z" fill="#58A33E"/>
<path d="M32.1455 40H27.2V45H32.1455V40Z" fill="#58A33E"/>
<path d="M24.7273 32.5H19.7818V37.5H24.7273V32.5Z" fill="#58A33E"/>
<path d="M17.3091 25H12.3636V30H17.3091V25Z" fill="#58A33E"/>
<path d="M49.4546 35H44.5091V40H49.4546V35Z" fill="#58A33E"/>
<path d="M44.5091 25H39.5637V30H44.5091V25Z" fill="#58A33E"/>
<path d="M39.5636 15H34.6182V20H39.5636V15Z" fill="#58A33E"/>
<path d="M76.6546 30H71.7091V35H76.6546V30Z" fill="#58A33E"/>
<path d="M76.6546 20H71.7091V25H76.6546V20Z" fill="#58A33E"/>
<path d="M76.6546 10H71.7091V15H76.6546V10Z" fill="#58A33E"/>
<path d="M76.6546 0H71.7091V5H76.6546V0Z" fill="#58A33E"/>
<path d="M116.218 127.5H111.273V114.475C108.479 118.625 106.327 123.5 106.327 127.5H101.382C101.382 119.925 106.896 110.9 111.99 105.725L116.218 101.475V127.5Z" fill="#58A33E"/>
<path d="M133.527 125H128.582C128.582 115.3 127.37 109.875 125.169 106C123.76 112.775 120.545 122.5 113.745 122.5V117.5C117.281 117.5 120.348 107.175 121.188 99.7249L121.782 94.575L125.392 98.2249C131.327 104.225 133.527 111.5 133.527 125Z" fill="#58A33E"/>
<path d="M4.94545 85H0V90H4.94545V85Z" fill="#58A33E"/>
</svg>
