<svg width="131" height="137" viewBox="0 0 131 137" fill="none" xmlns="http://www.w3.org/2000/svg">
<path d="M108.755 110.646H103.811V92.1636C103.811 90.7936 102.699 89.6727 101.34 89.6727H88.9811V84.6909H101.34C105.418 84.6909 108.755 88.0536 108.755 92.1636V110.646Z" fill="#58A33E"/>
<path d="M64.2641 104.618H59.3207V92.1636C59.3207 88.0536 62.6575 84.6909 66.7358 84.6909H79.0943V89.6727H66.7358C65.3764 89.6727 64.2641 90.7936 64.2641 92.1636V104.618Z" fill="#58A33E"/>
<path d="M91.4529 99.6364H86.5095V104.618H91.4529V99.6364Z" fill="#58A33E"/>
<path d="M88.9811 24.9091H79.0944V29.8909H88.9811V24.9091Z" fill="#58A33E"/>
<path d="M78.8225 110.198C76.7462 108.105 76.5979 103.497 76.6227 102.127V28.8198L67.8728 23.5142C65.6483 22.1691 64.2642 19.7031 64.2642 17.1125V7.47273C64.2642 3.36273 67.601 0 71.6793 0H96.3962C100.475 0 103.811 3.36273 103.811 7.47273V17.1125C103.811 19.728 102.427 22.1691 100.203 23.5142L91.4528 28.8198V94.6545H86.5094V25.9802L97.6568 19.2298C98.3983 18.8064 98.8679 17.9844 98.8679 17.1125V7.47273C98.8679 6.10273 97.7557 4.98182 96.3962 4.98182H71.6793C70.3198 4.98182 69.2076 6.10273 69.2076 7.47273V17.1125C69.2076 17.9844 69.6772 18.8064 70.4187 19.2547L81.566 25.9802V102.127C81.566 103.971 81.9368 106.187 82.357 106.686L78.8225 110.198Z" fill="#58A33E"/>
<path d="M44.4906 47.3272H42.0189V44.8363C42.0189 35.9438 42.0189 17.4363 56.849 17.4363H59.3207V19.9272C59.3207 37.0896 51.7821 47.3272 44.4906 47.3272ZM54.3032 22.742C49.5081 24.0871 47.3577 29.6916 47.0117 41.374C50.1013 39.182 53.7347 33.2536 54.3032 22.742Z" fill="#58A33E"/>
<path d="M39.6955 72.2364H37.2238V69.7454C37.2238 59.3085 48.643 52.3091 59.3207 52.3091H61.7924V54.8C61.7924 66.5322 54.5751 72.2364 39.6955 72.2364ZM56.676 57.4653C50.3979 58.3122 44.1939 62.0734 42.5626 67.1549C53.1415 66.5322 56.0334 62.2478 56.676 57.4653Z" fill="#58A33E"/>
<path d="M20.9847 52.3091H18.686L18.513 50.0175C17.9939 43.4664 20.1196 37.1146 24.3215 32.5313C27.3122 29.2682 31.0692 27.4 34.6037 27.4H37.0754V29.8909C37.0754 40.3278 35.2464 52.3091 20.9847 52.3091ZM32.0826 32.9049C30.6737 33.4778 29.2402 34.4991 27.9549 35.894C25.2607 38.8333 23.6294 42.9184 23.4069 47.1529C29.2154 46.3558 31.6624 42.2708 32.0826 32.9049Z" fill="#58A33E"/>
<path d="M22.2453 27.4H19.7736C8.89814 27.4 4.94342 15.4934 4.94342 7.47272V4.98181H7.41512C21.6521 4.98181 22.2453 11.0845 22.2453 24.9091V27.4ZM10.0598 10.0134C10.5789 14.248 12.4079 20.4504 17.3019 22.0445C17.1783 12.0809 16.2391 10.2874 10.0598 10.0134Z" fill="#58A33E"/>
<path d="M23.1351 47.3273H20.5151C3.43566 47.3273 0 41.5982 0 32.3818V29.8909H2.4717C18.7108 29.8909 22.5913 37.9366 22.9868 44.6869L23.1351 47.3273ZM5.01755 34.9475C5.33887 38.7835 7.19264 41.8224 17.6479 42.2957C16.684 38.8831 13.7921 35.4955 5.01755 34.9475Z" fill="#58A33E"/>
<path d="M26.5213 67.2545H23.3575C8.52734 67.2545 2.47168 62.9204 2.47168 52.3091V49.8182H4.94338C12.9764 49.8182 22.5913 51.4373 25.7551 64.1658L26.5213 67.2545ZM7.56338 54.8747C8.08243 58.7605 10.4058 61.6251 19.8972 62.1731C17.8209 57.5151 14.0639 55.3231 7.56338 54.8747Z" fill="#58A33E"/>
<path d="M47.1847 94.6545H32.1321V99.6364H47.1847V94.6545Z" fill="#58A33E"/>
<path d="M32.1321 99.6364C30.4019 99.6364 29.0672 98.366 27.2134 96.5975C24.1238 93.6333 21.306 91.2918 18.4636 92.5124L16.5109 87.9291C22.5913 85.2888 27.6336 90.0962 30.6243 92.9608C31.3164 93.6333 32.2804 94.53 32.6264 94.7293C32.6264 94.7293 32.4287 94.6297 32.1321 94.6297V99.6364Z" fill="#58A33E"/>
<path d="M19.7736 102.127C15.6953 102.127 12.3585 98.7645 12.3585 94.6545C12.3585 90.5445 15.6953 87.1818 19.7736 87.1818V92.1636C18.4142 92.1636 17.3019 93.2845 17.3019 94.6545C17.3019 96.0245 18.4142 97.1454 19.7736 97.1454C28.2021 97.1454 30.0806 95.6758 30.3772 95.3769L33.8623 98.889C31.7119 101.106 27.2134 102.127 19.7736 102.127Z" fill="#58A33E"/>
<path d="M42.0189 117.073C37.9406 117.073 34.6038 113.71 34.6038 109.6C34.6038 103.398 32.75 99.9353 32.0085 99.6115L32.1321 94.6545C37.2238 94.6545 39.5472 102.401 39.5472 109.6C39.5472 110.97 40.6594 112.091 42.0189 112.091V117.073Z" fill="#58A33E"/>
<path d="M39.5472 137C35.4194 137 14.8302 136.552 14.8302 127.535C14.8302 119.364 24.7911 103.647 28.6964 97.793C25.3844 94.4303 22.2453 87.0323 22.2453 79.709V77.2181H24.717C33.9611 77.2181 37.3474 77.4921 39.2753 79.186C40.1157 79.9083 40.7583 80.6307 41.3268 81.2534C41.6234 81.5772 42.0189 82.0256 42.2661 82.2249C45.1332 82.1501 46.9623 80.7303 46.9623 79.734V77.243H49.434C53.5123 77.243 56.8491 80.6058 56.8491 84.7158C56.8491 90.4449 52.8449 95.2274 50.4474 97.5689C54.1796 103.198 64.2642 119.265 64.2642 127.535C64.2642 136.078 46.987 137 39.5472 137ZM32.5523 94.6545H36.9025L34.1836 98.5652C30.1547 104.319 19.7736 120.734 19.7736 127.535C19.7736 129.054 26.7438 132.018 39.5472 132.018C52.7213 132.018 59.3208 129.129 59.3208 127.535C59.3208 120.734 49.1127 104.319 45.1579 98.5652L43.8232 96.6223L45.677 95.1776C45.7511 95.1029 51.9057 90.2456 51.9057 84.6909C51.9057 83.9436 51.5844 83.2711 51.0406 82.7978C49.5081 85.4132 46.0972 87.1818 42.0189 87.1818C40.0662 87.1818 38.8057 85.8118 37.6934 84.6161C37.2238 84.118 36.7047 83.5201 36.0374 82.9472C35.197 82.3743 30.7974 82.2498 27.3123 82.2249C28.0291 88.8507 31.3411 93.708 32.5523 94.6545Z" fill="#58A33E"/>
<path d="M42.0188 83.0219H37.0754C37.0754 56.5934 38.6326 46.0568 43.0322 42.8187L45.9488 46.8539C42.0188 49.7434 42.0188 74.777 42.0188 83.0219Z" fill="#58A33E"/>
<path d="M32.1321 82.3246C18.0187 82.3246 17.3019 34.4742 17.3019 24.9091H22.2453C22.2453 58.6858 28.1032 77.3427 32.1321 77.3427V82.3246Z" fill="#58A33E"/>
<path d="M84.0624 21.2974L73.6566 13.0774L76.6967 9.14172L84.0871 14.9705L91.4775 9.14172L94.5177 13.0774L84.0624 21.2974Z" fill="#58A33E"/>
<path d="M76.6227 132.018H71.6793C71.6793 125.143 77.2159 119.564 84.0378 119.564C84.977 119.564 85.8421 119.638 86.6825 119.838C87.7453 112.639 93.9245 107.109 101.34 107.109C107.939 107.109 113.525 111.418 115.428 117.521C116.368 117.272 117.455 117.073 118.642 117.073C125.463 117.073 131 122.652 131 129.527C131 130.225 130.951 130.922 130.827 131.595L125.958 130.773C126.032 130.374 126.057 129.951 126.057 129.527C126.057 125.417 122.72 122.055 118.642 122.055C116.615 122.055 114.885 123.076 114.885 123.101L111.498 125.143L111.128 121.183C110.683 116.002 106.456 112.091 101.34 112.091C95.8772 112.091 91.4528 116.55 91.4528 122.055C91.4528 122.453 91.527 123.2 91.527 123.2L91.9966 128.083L87.8194 125.592C86.5836 124.844 85.4713 124.545 84.0378 124.545C79.9594 124.545 76.6227 127.908 76.6227 132.018Z" fill="#58A33E"/>
</svg>
