<svg width="27" height="27" viewBox="0 0 27 27" fill="none" xmlns="http://www.w3.org/2000/svg">
<path d="M11.2231 15.7671C12.8781 17.4815 14.8807 18.8052 17.0901 19.6451L20.079 17.2163C20.1676 17.154 20.2727 17.1206 20.3803 17.1206C20.4879 17.1206 20.593 17.154 20.6816 17.2163L26.2314 20.8676C26.4421 20.9969 26.6204 21.1745 26.7523 21.3864C26.8843 21.5982 26.9662 21.8384 26.9915 22.0881C27.0169 22.3378 26.9851 22.5901 26.8986 22.8251C26.812 23.0601 26.6732 23.2713 26.493 23.4421L23.8925 26.0652C23.5201 26.4409 23.0624 26.7167 22.5602 26.8679C22.058 27.019 21.527 27.0409 21.0146 26.9315C15.9026 25.8533 11.1907 23.3283 7.41754 19.6451C3.7281 15.9252 1.17502 11.1919 0.0680134 6.01952C-0.0413446 5.50432 -0.0185201 4.96902 0.134275 4.46547C0.28707 3.96193 0.564654 3.50723 0.940125 3.14544L3.63574 0.48996C3.80255 0.314914 4.00598 0.180673 4.2308 0.0972864C4.45562 0.0139001 4.69599 -0.01647 4.93393 0.00845012C5.17187 0.0333703 5.4012 0.112935 5.60476 0.241186C5.80832 0.369438 5.98083 0.543053 6.10937 0.749032L9.80395 6.34336C9.86768 6.43121 9.90208 6.53764 9.90208 6.64696C9.90208 6.75628 9.86768 6.86271 9.80395 6.95056L7.36997 9.93798C8.21479 12.1489 9.53101 14.1401 11.2231 15.7671Z" fill="#6BCA0C"/>
</svg>
