<svg width="132" height="145" viewBox="0 0 132 145" fill="none" xmlns="http://www.w3.org/2000/svg">
<path d="M112.748 145H16.7615C13.0755 145 9.88755 142.241 9.36453 138.588L5.00604 108.091L9.93736 107.395L14.2959 137.916C14.4702 139.134 15.5411 140.054 16.7615 140.054H112.723C113.943 140.054 115.014 139.134 115.189 137.916L119.547 107.395L124.479 108.091L120.12 138.612C119.622 142.266 116.434 145 112.748 145Z" fill="#58A33E"/>
<path d="M97.1321 130.087H77.2076V135.058H97.1321V130.087Z" fill="#58A33E"/>
<path d="M107.094 130.087H102.113V135.058H107.094V130.087Z" fill="#58A33E"/>
<path d="M22.4151 30.6702H14.9434C12.2038 30.6702 9.96227 28.4333 9.96227 25.6993V20.7284C9.96227 17.9945 12.2038 15.7576 14.9434 15.7576H22.4151V20.7284H14.9434V25.6993H22.4151V30.6702Z" fill="#58A33E"/>
<path d="M44.8302 13.2722H39.8491V20.7284H44.8302V13.2722Z" fill="#58A33E"/>
<path d="M59.7736 82.044H54.7925V66.3112C54.7925 64.7206 54.2694 63.1299 53.2981 61.8375L39.8491 43.9424V25.7242H44.8302V42.302L57.283 58.8798C58.877 61.0173 59.7736 63.6518 59.7736 66.3361V82.044Z" fill="#58A33E"/>
<path d="M17.434 82.3671H12.4528V65.839C12.4528 63.5027 13.1004 61.241 14.3457 59.2526L24.9057 42.4014V33.1805H29.8868V43.843L18.5796 61.8872C17.8325 63.0802 17.434 64.4472 17.434 65.839V82.3671Z" fill="#58A33E"/>
<path d="M54.7925 35.6411H49.8113C49.8113 20.4054 48.0679 15.7576 42.3396 15.7576H27.3962C26.0264 15.7576 24.9057 16.876 24.9057 18.243V28.1848C24.9057 29.5517 26.0264 30.6702 27.3962 30.6702H34.8679V35.6411H27.3962C23.2868 35.6411 19.9245 32.2857 19.9245 28.1848V18.243C19.9245 14.1421 23.2868 10.7867 27.3962 10.7867H42.3396C54.7925 10.7867 54.7925 25.1525 54.7925 35.6411Z" fill="#58A33E"/>
<path d="M39.8491 80.3788H34.8679V60.4954C34.8679 59.1284 33.7472 58.0099 32.3774 58.0099H19.6257V53.0391H32.3774C36.4868 53.0391 39.8491 56.3944 39.8491 60.4954V80.3788Z" fill="#58A33E"/>
<path d="M76.4853 89.5997L72.9736 86.0953C75.6385 83.4359 77.9796 81.0498 80.0966 78.9124C91.1796 67.6534 95.7872 63.0056 102.138 63.0056V67.9765C97.8792 67.9765 93.4211 72.5 83.6581 82.4168C81.5162 84.5543 79.1502 86.9403 76.4853 89.5997Z" fill="#58A33E"/>
<path d="M96.9175 74.5955L85.4 86.0892L88.9222 89.6041L100.44 78.1104L96.9175 74.5955Z" fill="#58A33E"/>
<path d="M82.089 82.9139C77.5313 82.9139 72.2264 75.3831 72.2264 70.4619C72.2264 57.3637 99.9713 35.6659 129.509 35.6659H132V38.1513C132 55.1517 126.346 71.1578 116.882 80.9753L113.296 77.5205C121.415 69.0949 126.446 55.4748 126.969 40.6865C100.445 41.8546 77.2075 61.1664 77.2075 70.4371C77.2075 73.3947 80.7691 77.6945 82.1389 77.9182L82.089 82.9139Z" fill="#58A33E"/>
<path d="M62.2642 53.0391H57.283C57.283 24.6803 68.4408 13.5456 80.246 1.7398L82.0143 0L83.957 1.59068C93.1472 10.7371 101.64 19.2372 105.276 35.0943L100.42 36.2127C97.3064 22.5926 90.3577 15.0369 82.1887 6.85979C71.2551 17.8454 62.2642 28.0605 62.2642 53.0391Z" fill="#58A33E"/>
<path d="M79.6981 63.5276H74.717V43.0973C74.717 39.0461 78.1291 35.6411 82.1887 35.6411C86.2981 35.6411 89.6604 38.9964 89.6604 43.0973V53.1136H84.6792V43.0973C84.6792 41.7304 83.5585 40.6119 82.1887 40.6119C80.8687 40.6119 79.6981 41.7801 79.6981 43.0973V63.5276Z" fill="#58A33E"/>
<path d="M74.717 67.9516H64.7547V72.9225H74.717V67.9516Z" fill="#58A33E"/>
<path d="M122.038 110.204H79.6981V105.233H122.038C123.408 105.233 124.528 104.115 124.528 102.748V92.8059C124.528 91.4389 123.408 90.3205 122.038 90.3205H66.7721V85.3496H122.038C126.147 85.3496 129.509 88.7049 129.509 92.8059V102.748C129.509 106.873 126.147 110.204 122.038 110.204Z" fill="#58A33E"/>
<path d="M24.9057 105.233H19.9245V110.204H24.9057V105.233Z" fill="#58A33E"/>
<path d="M67.2453 107.719C63.1359 107.719 59.7736 104.363 59.7736 100.262C59.7736 98.8952 58.6528 97.7768 57.283 97.7768V92.8059C61.3925 92.8059 64.7547 96.1613 64.7547 100.262C64.7547 101.629 65.8755 102.748 67.2453 102.748C68.6151 102.748 69.7359 101.629 69.7359 100.262C69.7359 90.6685 59.674 82.8642 47.3208 82.8642H22.4151C17.8574 82.8642 13.7977 85.2751 12.7268 88.6056L7.99472 87.0895C9.73812 81.6961 15.6657 77.9182 22.4151 77.9182H47.3208C62.4385 77.9182 74.717 87.9593 74.717 100.287C74.717 104.388 71.3547 107.719 67.2453 107.719Z" fill="#58A33E"/>
<path d="M37.3585 125.116C33.2491 125.116 29.8868 121.761 29.8868 117.66V100.262C29.8868 93.2036 25.5532 90.3205 14.9434 90.3205H7.4717C6.10189 90.3205 4.98113 91.4389 4.98113 92.8059V102.748C4.98113 104.115 6.10189 105.233 7.4717 105.233H14.9434V110.204H7.4717C3.36226 110.204 0 106.849 0 102.748V92.8059C0 88.7049 3.36226 85.3496 7.4717 85.3496H14.9434C28.1683 85.3496 34.8679 90.3702 34.8679 100.262V117.66C34.8679 119.027 35.9887 120.146 37.3585 120.146C38.7283 120.146 39.8491 119.027 39.8491 117.66V102.748H44.8302V117.66C44.8302 121.786 41.4679 125.116 37.3585 125.116Z" fill="#58A33E"/>
<path d="M57.283 125.116C53.1736 125.116 49.8113 121.761 49.8113 117.66V102.748H54.7925V117.66C54.7925 119.027 55.9132 120.146 57.283 120.146C58.6528 120.146 59.7736 119.027 59.7736 117.66V100.262H64.7547V117.66C64.7547 121.786 61.3925 125.116 57.283 125.116Z" fill="#58A33E"/>
<path d="M77.083 31.714L72.5502 29.676C74.5925 25.1276 77.2325 21.0018 80.8438 16.6772L84.6793 19.8585C81.3668 23.8104 78.951 27.5882 77.083 31.714Z" fill="#58A33E"/>
<path d="M113.445 69.1695L109.087 66.7586C111.528 62.3842 113.47 57.5625 114.84 52.4177L119.647 53.6852C118.177 59.2277 116.085 64.4223 113.445 69.1695Z" fill="#58A33E"/>
<path d="M47.3208 130.087C43.2113 130.087 39.8491 126.732 39.8491 122.631V117.66H44.8302V122.631C44.8302 123.998 45.9509 125.116 47.3208 125.116C48.6906 125.116 49.8113 123.998 49.8113 122.631V117.66H54.7925V122.631C54.7925 126.757 51.4302 130.087 47.3208 130.087Z" fill="#58A33E"/>
</svg>
