<svg xmlns="http://www.w3.org/2000/svg" width="14" height="10.285" viewBox="0 0 14 10.285">
  <g id="Youtube" transform="translate(103.205 29.116)">
    <g id="Group_2663" data-name="Group 2663" transform="translate(-103.205 -29.116)">
      <path id="Path_1316" data-name="Path 1316" d="M11.216,89.541H2.784A2.792,2.792,0,0,0,0,92.333v4.7a2.791,2.791,0,0,0,2.784,2.793h8.432A2.792,2.792,0,0,0,14,97.034v-4.7A2.792,2.792,0,0,0,11.216,89.541Zm2.213,7.493a2.219,2.219,0,0,1-2.213,2.221H2.784A2.22,2.22,0,0,1,.571,97.034v-4.7a2.22,2.22,0,0,1,2.213-2.221h8.432a2.22,2.22,0,0,1,2.213,2.221Z" transform="translate(0 -89.541)" fill="#fff"/>
      <path id="Path_1317" data-name="Path 1317" d="M253.772,221.964l-5.243-3.071a.378.378,0,0,0-.57.327v6.142a.378.378,0,0,0,.57.327l5.243-3.07a.379.379,0,0,0,0-.654Zm-5.056,2.737v-4.821l4.116,2.411Z" transform="translate(-242.626 -217.147)" fill="#fff"/>
    </g>
  </g>
</svg>
